# xmcd
#
# Track frame offsets:
#	150
#	11768
#	24424
#	37040
#	48955
#	60988
#	86278
#	105143
#	125194
#	140870
#	157410
#	176315
#	195259
#	216444
#	234645
#	257997
#	276201
#	291246
#
# Disc length: 4180 seconds
#
# Revision: 1
# Processed by: cddbd v1.4PL0 Copyright (c) Steve Scherf et al.
# Submitted via: audiograbber 1.81.03
#
DISCID=06105212
DTITLE=Tyrone Davis - The Best Of
DYEAR=1900
DGENRE=
TTITLE0=I Tried It Over (And Over Again)
TTITLE1=Can I Change My Mind
TTITLE2=A Woman Needs To Be Loved
TTITLE3=Is It Something You've Got
TTITLE4=Turn Back The Hands Of Time
TTITLE5=I Had It All The Time
TTITLE6=There It Is
TTITLE7=Turning Point
TTITLE8=Give It Up (Turn It Loose)
TTITLE9=This I Swear
TTITLE10=In The Mood
TTITLE11=Heart Failure
TTITLE12=Are You Serious
TTITLE13=A Little Bit Of Loving (Goes A Long Way)
TTITLE14=I Found Myself When I Lost You
TTITLE15=Let Me Be Your Pacifier
TTITLE16=Mom's Apple Pie
TTITLE17=I'll Always Love You
EXTD=
EXTT0=
EXTT1=
EXTT2=
EXTT3=
EXTT4=
EXTT5=
EXTT6=
EXTT7=
EXTT8=
EXTT9=
EXTT10=
EXTT11=
EXTT12=
EXTT13=
EXTT14=
EXTT15=
EXTT16=
EXTT17=
PLAYORDER=
